<svg width="800" height="800" viewBox="0 0 800 800" fill="none" xmlns="http://www.w3.org/2000/svg">
<g clip-path="url(#clip0_3_8)">
<rect width="800" height="800" fill="black"/>
<path d="M851.713 133.508C851.713 156.428 841.526 173.406 821.153 184.441C773.615 191.233 745.177 195.477 735.839 197.175C699.336 204.815 674.718 215.851 661.985 230.282C635.669 376.292 622.511 521.029 622.511 664.492C622.511 678.924 626.331 700.57 633.971 729.433C641.611 758.295 645.431 779.942 645.431 794.374C645.431 819.84 628.878 832.574 595.771 832.574C572.002 832.574 550.779 819.416 532.104 793.1L513.003 684.866C491.781 656.003 452.732 633.508 395.856 617.379C364.447 609.739 317.333 597.005 254.514 579.178C208.674 564.747 185.754 542.676 185.754 512.964C185.754 500.231 189.574 485.8 197.214 469.671C283.801 389.874 340.253 336.818 366.569 310.503C454.854 223.066 499.421 170.01 500.27 151.334L492.63 134.781L479.896 129.688H347.469C236.263 129.688 152.222 154.73 95.3463 204.815C78.3684 204.815 71.1528 190.808 73.6995 162.795C121.238 104.221 229.896 74.9338 399.676 74.9338C455.703 74.9338 497.299 78.3294 524.464 85.1205C569.455 96.1562 603.411 118.227 626.331 151.334C708.674 128.414 775.737 116.954 827.52 116.954C843.649 116.954 851.713 122.472 851.713 133.508ZM584.311 329.603C584.311 293.949 574.973 276.122 556.297 276.122C533.377 276.122 491.357 307.531 430.236 370.35C369.115 433.168 338.555 475.613 338.555 497.684C338.555 506.173 365.295 521.878 418.776 544.798C432.358 549.891 465.89 563.049 519.37 584.272C537.197 584.272 553.326 546.496 567.757 470.944C578.793 409.823 584.311 362.71 584.311 329.603Z" fill="white"/>
</g>
<defs>
<clipPath id="clip0_3_8">
<rect width="800" height="800" fill="white"/>
</clipPath>
</defs>
</svg>
